<?xml version="1.0" standalone="no"?>
<svg xmlns:xlink="http://www.w3.org/1999/xlink" id="wave" style="transform:rotate(180deg); transition: 0.3s" viewBox="0 0 1440 100" version="1.1" xmlns="http://www.w3.org/2000/svg"><defs><linearGradient id="sw-gradient-0" x1="0" x2="0" y1="1" y2="0"><stop stop-color="rgba(100.287, 255, 207.302, 1)" offset="0%"/><stop stop-color="rgba(50.198, 161.214, 168.852, 0.89)" offset="100%"/></linearGradient></defs><path style="transform:translate(0, 0px); opacity:1" fill="url(#sw-gradient-0)" d="M0,80L16,76.7C32,73,64,67,96,58.3C128,50,160,40,192,30C224,20,256,10,288,16.7C320,23,352,47,384,50C416,53,448,37,480,25C512,13,544,7,576,5C608,3,640,7,672,18.3C704,30,736,50,768,50C800,50,832,30,864,23.3C896,17,928,23,960,35C992,47,1024,63,1056,61.7C1088,60,1120,40,1152,31.7C1184,23,1216,27,1248,36.7C1280,47,1312,63,1344,70C1376,77,1408,73,1440,60C1472,47,1504,23,1536,23.3C1568,23,1600,47,1632,46.7C1664,47,1696,23,1728,21.7C1760,20,1792,40,1824,41.7C1856,43,1888,27,1920,23.3C1952,20,1984,30,2016,40C2048,50,2080,60,2112,56.7C2144,53,2176,37,2208,40C2240,43,2272,67,2288,78.3L2304,90L2304,100L2288,100C2272,100,2240,100,2208,100C2176,100,2144,100,2112,100C2080,100,2048,100,2016,100C1984,100,1952,100,1920,100C1888,100,1856,100,1824,100C1792,100,1760,100,1728,100C1696,100,1664,100,1632,100C1600,100,1568,100,1536,100C1504,100,1472,100,1440,100C1408,100,1376,100,1344,100C1312,100,1280,100,1248,100C1216,100,1184,100,1152,100C1120,100,1088,100,1056,100C1024,100,992,100,960,100C928,100,896,100,864,100C832,100,800,100,768,100C736,100,704,100,672,100C640,100,608,100,576,100C544,100,512,100,480,100C448,100,416,100,384,100C352,100,320,100,288,100C256,100,224,100,192,100C160,100,128,100,96,100C64,100,32,100,16,100L0,100Z"/></svg>