<?xml version="1.0" standalone="no"?>
<svg xmlns:xlink="http://www.w3.org/1999/xlink" id="wave" style="transform:rotate(180deg); transition: 0.3s" viewBox="0 0 1440 380" version="1.1" xmlns="http://www.w3.org/2000/svg"><defs><linearGradient id="sw-gradient-0" x1="0" x2="0" y1="1" y2="0"><stop stop-color="rgba(100.287, 255, 207.302, 1)" offset="0%"/><stop stop-color="rgba(50.198, 161.214, 168.852, 1)" offset="100%"/></linearGradient></defs><path style="transform:translate(0, 0px); opacity:1" fill="url(#sw-gradient-0)" d="M0,304L60,291.3C120,279,240,253,360,221.7C480,190,600,152,720,114C840,76,960,38,1080,63.3C1200,89,1320,177,1440,190C1560,203,1680,139,1800,95C1920,51,2040,25,2160,19C2280,13,2400,25,2520,69.7C2640,114,2760,190,2880,190C3000,190,3120,114,3240,88.7C3360,63,3480,89,3600,133C3720,177,3840,241,3960,234.3C4080,228,4200,152,4320,120.3C4440,89,4560,101,4680,139.3C4800,177,4920,241,5040,266C5160,291,5280,279,5400,228C5520,177,5640,89,5760,88.7C5880,89,6000,177,6120,177.3C6240,177,6360,89,6480,82.3C6600,76,6720,152,6840,158.3C6960,165,7080,101,7200,88.7C7320,76,7440,114,7560,152C7680,190,7800,228,7920,215.3C8040,203,8160,139,8280,152C8400,165,8520,253,8580,297.7L8640,342L8640,380L8580,380C8520,380,8400,380,8280,380C8160,380,8040,380,7920,380C7800,380,7680,380,7560,380C7440,380,7320,380,7200,380C7080,380,6960,380,6840,380C6720,380,6600,380,6480,380C6360,380,6240,380,6120,380C6000,380,5880,380,5760,380C5640,380,5520,380,5400,380C5280,380,5160,380,5040,380C4920,380,4800,380,4680,380C4560,380,4440,380,4320,380C4200,380,4080,380,3960,380C3840,380,3720,380,3600,380C3480,380,3360,380,3240,380C3120,380,3000,380,2880,380C2760,380,2640,380,2520,380C2400,380,2280,380,2160,380C2040,380,1920,380,1800,380C1680,380,1560,380,1440,380C1320,380,1200,380,1080,380C960,380,840,380,720,380C600,380,480,380,360,380C240,380,120,380,60,380L0,380Z"/></svg>